<svg xmlns="http://www.w3.org/2000/svg" xmlns:xlink="http://www.w3.org/1999/xlink" xmlns:inkscape="http://www.inkscape.org/namespaces/inkscape" version="1.1" width="1080" height="494.32" viewBox="0 0 1080 494.32">
<defs>
<clipPath id="clip_1">
<path transform="matrix(1,0,0,-1,0,494.32)" d="M0 494.32H1080V0H0Z"/>
</clipPath>
<clipPath id="clip_2">
<path transform="matrix(1,0,0,-1,0,494.32)" d="M0 494.32H1080V0H0Z"/>
</clipPath>
<clipPath id="clip_3">
<path transform="matrix(1,0,0,-1,0,494.32)" d="M0 494.32H1080V0H0Z"/>
</clipPath>
<clipPath id="clip_4">
<path transform="matrix(1,0,0,-1,0,494.32)" d="M0 494.32H1080V0H0Z"/>
</clipPath>
<clipPath id="clip_5">
<path transform="matrix(1,0,0,-1,0,494.32)" d="M0 494.32H1080V0H0Z"/>
</clipPath>
<clipPath id="clip_6">
<path transform="matrix(1,0,0,-1,0,494.32)" d="M0 494.32H1080V0H0Z"/>
</clipPath>
<clipPath id="clip_7">
<path transform="matrix(1,0,0,-1,0,494.32)" d="M0 494.32H1080V0H0Z"/>
</clipPath>
</defs>
<g inkscape:groupmode="layer" inkscape:label="LOGO">
<g clip-path="url(#clip_1)">
<path transform="matrix(1,0,0,-1,201.1744,235.15872)" d="M0 0C.618-8.549 .245-16.676 .147-25.245 0-37.033-9.815-46.328-21.447-46.368L-84.824-46.623C-96.72-46.672-107.105-39.978-108.96-27.797-109.588-23.675-109.48-19.425-108.99-15.204L-87.504-15.037-86.709-24.205-22.526-24.175C-21.81-16.863-22.114-10.748-22.34-2.994-30.516-2.964-49.116-3.131-56.527-3.2V-6.959L-68.54-11.906-73.487-4.132H-81.968L-87.798-11.906-99.989-6.252-99.282 1.875-105.996 7.528-114.123 6.115-118.088 20.406-110.589 24.489-110.884 32.636-119.07 39.33-114.074 51.638-102.953 50.47-98.595 54.367-100.342 64.948-87.16 70.572-81.929 62.975-81.919 62.965-74.498 63.044-74.489 63.054-68.894 70.072-56.527 65.478V63.171C-40.174 63.24-23.37 63.23-20.318 63.054-4.633 62.16 2.837 47.516-.069 32.067L-21.82 31.959-22.781 40.881-75.323 40.792C-81.83 40.773-87.003 36.405-87.033 30.359-87.062 22.938-80.967 19.905-74.096 19.876L-22.811 19.611C-11.347 19.552-.854 11.7 0 0" fill="#757c80"/>
<path transform="matrix(1,0,0,-1,126.6859,172.10501)" d="M0 0-.01-.01-7.43-.088-7.44-.078C-5.261-.049-2.748-.02 0 0" fill="#757c80"/>
<path transform="matrix(1,0,0,-1,293.2868,215.10642)" d="M0 0-.336-66.234C-7.752-66.83-14.331-66.682-22.133-66.212L-22.526-.115-53.91-.139-54.355-66.232C-61.507-66.592-68.1-66.729-75.935-66.219L-76.031 21.887 34.391 21.469C45.476 21.427 53.17 10.482 53.304 .308L53.151-66.195C45.937-66.837 39.362-66.78 31.58-66.297L31.336-.381Z" fill="#757c80"/>
</g>
<g clip-path="url(#clip_2)">
<path transform="matrix(1,0,0,-1,428.5898,259.6632)" d="M0 0 .086 13.592-45.217 13.419-45.058 .072ZM-67.135-3.593-67.034 32.826-.516 32.952-.163 44.467-67.025 44.817-66.977 66.343 1.881 66.504C12.77 65.782 22.168 57.179 22.192 45.913L22.333-21.88-43.583-21.958C-55.101-22.531-64.633-15.278-67.135-3.593" fill="#757c80"/>
</g>
<g clip-path="url(#clip_3)">
<path transform="matrix(1,0,0,-1,564.4582,215.06482)" d="M0 0 .191-44.345 33.26-44.797 33.138-66.379C21.314-66.647 10.055-66.941-1.521-66.356-14.191-65.715-22.038-55.101-21.997-42.831L-21.689 48.412-.37 48.435 .167 21.943 33.197 21.685 33.18 .185Z" fill="#757c80"/>
<path transform="matrix(1,0,0,-1,485.1366,215.09192)" d="M0 0-.518-66.086C-7.716-66.97-14.657-66.641-22.113-66.171L-22.297-.965C-22.329 10.467-14.211 21.514-2.23 21.6L47.994 21.96 48.079 .182Z" fill="#757c80"/>
<path transform="matrix(1,0,0,-1,944.7567,215.2283)" d="M0 0-.432-66.003-22.323-66.172-22.462-.317-54.207-.292-54.503-66.114-76.086-66.154-76.175 22.072 32.467 21.893C44.324 21.873 52.994 11.623 53.139 .342L52.984-66.119 31.405-66.164 31.28-.334Z" fill="#225ca7"/>
<path transform="matrix(1,0,0,-1,724.8641,281.4619)" d="M0 0-30.692 36.552-63.96 36.453-63.953 58.671 .795 58.901 .779 87.032-63.799 87.137-63.958 109.134 3.965 108.908C15.377 108.87 23.454 97.63 23.457 86.999L23.467 59.296C23.471 45.883 12.98 35.633-1.286 36.565L22.142 8.276 22.691 .051Z" fill="#225ca7"/>
<path transform="matrix(1,0,0,-1,0,494.32)" d="M645.95 249.218H624.11V322.101H645.95Z" fill="#1e99c7"/>
<path transform="matrix(1,0,0,-1,0,494.32)" d="M645.95 212.786H624.11V234.636H645.95Z" fill="#1e99c7"/>
</g>
<g clip-path="url(#clip_4)">
<path transform="matrix(1,0,0,-1,830.8058,228.8255)" d="M0 0C0 0 .401 8.938-.149 13.378L-45.227 13.515-45.401-.153ZM-45.401-30.822 21.676-30.947C22.234-38.311 22.112-45.005 21.764-52.701L-48.136-52.444C-58.217-52.407-67.323-42.715-67.333-32.858L-67.379 15.122C-67.391 27.308-56.328 35.739-44.667 35.711L-.35 35.605C11.427 35.948 21.835 27.022 21.86 15.104L21.932-19.463-45.58-19.567Z" fill="#225ca7"/>
<path transform="matrix(1,0,0,-1,0,494.32)" d="M192.89 149.759H185.774V176.98401H192.89Z" fill="#225ca7"/>
<path transform="matrix(1,0,0,-1,199.2443,344.561)" d="M0 0V27.225H6.518L12.168 16.561C13.255 14.461 15.047 10.946 16.079 8.604H16.188C15.971 11.472 15.482 16.198 15.482 21.206V27.225H21.728V0H15.21L9.615 10.341C8.42 12.643 6.736 16.076 5.921 18.54H5.813C5.975 15.794 6.247 11.593 6.247 6.14V0Z" fill="#225ca7"/>
<path transform="matrix(1,0,0,-1,247.5877,343.83393)" d="M0 0C-1.575-.485-4.944-.97-7.605-.97-11.788-.97-14.939-.081-17.383 1.737-20.534 3.999-22.218 8.038-22.109 12.724-21.946 22.62-14.341 26.74-6.573 26.74-3.803 26.74-1.739 26.336-.598 25.933L-1.847 21.368C-2.879 21.772-4.237 21.974-6.03 21.974-10.864 21.974-14.722 19.51-14.722 12.4-14.722 5.857-11.299 3.514-7.986 3.514-7.334 3.514-6.845 3.555-6.573 3.635V10.219H-9.833V14.541H0Z" fill="#225ca7"/>
<path transform="matrix(1,0,0,-1,278.7854,344.561)" d="M0 0V27.225H6.518L12.168 16.561C13.255 14.461 15.047 10.946 16.079 8.604H16.188C15.971 11.472 15.482 16.198 15.482 21.206V27.225H21.728V0H15.21L9.615 10.341C8.42 12.643 6.736 16.076 5.921 18.54H5.812C5.975 15.794 6.247 11.593 6.247 6.14V0Z" fill="#225ca7"/>
<path transform="matrix(1,0,0,-1,0,494.32)" d="M314.164 149.759H307.048V176.98401H314.164Z" fill="#225ca7"/>
<path transform="matrix(1,0,0,-1,338.4517,333.6949)" d="M0 0H-10.818V-4.829H1.178V-10.866H-17.934V16.359H1.119V10.336H-10.818V5.948H0Z" fill="#225ca7"/>
<path transform="matrix(1,0,0,-1,271.6681,333.6949)" d="M0 0H-10.818V-4.829H1.178V-10.866H-17.934V16.359H1.119V10.336H-10.818V5.948H0Z" fill="#225ca7"/>
<path transform="matrix(1,0,0,-1,352.8649,329.6156)" d="M0 0H1.249C4.345 0 6.228 .604 6.228 2.988 6.228 5.29 4.889 6.175 1.684 6.256 1.086 6.256 .38 6.216 0 6.095ZM-7.116 12.28C-7.116 12.28-2.064 12.4 .652 12.4 4.563 12.4 8.04 11.997 10.43 10.381 12.657 8.887 13.252 6.256 13.309 2.74 13.384-1.9 11.498-5.095 9.466-4.919 9.466-4.919 13.798-13.936 14.449-14.945H7.007C6.68-14.366 2.417-6.788 2.417-6.788L0-6.612V-14.945H-7.116Z" fill="#225ca7"/>
<path transform="matrix(1,0,0,-1,382.4488,308.7835)" d="M0 0-6.627-7.098H-11.679L-7.171 0ZM-4.672-35.777H-11.788V-8.552H-4.672Z" fill="#225ca7"/>
<path transform="matrix(1,0,0,-1,396.8981,332.81153)" d="M0 0-1.195 4.287C-1.575 5.943-2.064 8.649-2.39 10.467H-2.553C-2.933 8.649-3.477 5.821-3.857 4.246L-5.215 0ZM-5.921-5.529-7.551-11.749H-14.449L-6.518 15.476H2.01L9.126-11.749H2.227L.652-5.529Z" fill="#225ca7"/>
<path transform="matrix(1,0,0,-1,482.2282,344.07844)" d="M0 0V27.225H6.518L12.168 16.561C13.255 14.461 15.047 10.946 16.079 8.604H16.188C15.971 11.472 15.482 16.198 15.482 21.206V27.225H21.728V0H15.21L9.615 10.341C8.42 12.643 6.736 16.076 5.921 18.54H5.812C5.975 15.794 6.247 11.593 6.247 6.14V0Z" fill="#225ca7"/>
<path transform="matrix(1,0,0,-1,582.1835,343.3514)" d="M0 0C-1.576-.485-4.944-.97-7.606-.97-11.788-.97-14.939-.081-17.383 1.737-20.534 3.999-22.218 8.038-22.109 12.724-21.946 22.62-14.341 26.74-6.574 26.74-3.803 26.74-1.739 26.336-.598 25.933L-1.847 21.368C-2.879 21.772-4.238 21.974-6.03 21.974-10.865 21.974-14.722 19.51-14.722 12.4-14.722 5.857-11.299 3.514-7.986 3.514-7.334 3.514-6.845 3.555-6.574 3.635V10.219H-9.833V14.541H0Z" fill="#225ca7"/>
<path transform="matrix(1,0,0,-1,475.0505,333.2123)" d="M0 0H-10.818V-4.829H1.178V-10.866H-17.934V16.359H1.119V10.336H-10.818V5.948H0Z" fill="#225ca7"/>
<path transform="matrix(1,0,0,-1,528.7601,333.2123)" d="M0 0H-10.818V-4.829H1.178V-10.866H-17.934V16.359H1.119V10.336H-10.818V5.948H0Z" fill="#225ca7"/>
<path transform="matrix(1,0,0,-1,542.6665,329.13313)" d="M0 0H1.249C4.346 0 6.228 .604 6.228 2.988 6.228 5.29 4.889 6.175 1.684 6.256 1.086 6.256 .38 6.216 0 6.095ZM-7.116 12.28C-7.116 12.28-2.064 12.4 .652 12.4 4.563 12.4 8.04 11.997 10.43 10.381 12.657 8.887 13.252 6.256 13.309 2.74 13.384-1.9 11.498-5.095 9.466-4.919 9.466-4.919 13.798-13.936 14.449-14.945H7.007C6.68-14.366 2.417-6.788 2.417-6.788L0-6.612V-14.945H-7.116Z" fill="#225ca7"/>
<path transform="matrix(1,0,0,-1,599.4585,308.30104)" d="M0 0-6.627-7.098H-11.679L-7.171 0ZM-4.672-35.777H-11.788V-8.552H-4.672Z" fill="#225ca7"/>
<path transform="matrix(1,0,0,-1,613.2847,332.32923)" d="M0 0-1.195 4.287C-1.575 5.943-2.064 8.649-2.39 10.467H-2.553C-2.933 8.649-3.477 5.821-3.857 4.246L-5.215 0ZM-5.921-5.529-7.551-11.749H-14.449L-6.518 15.476H2.01L9.126-11.749H2.227L.652-5.529Z" fill="#225ca7"/>
</g>
<g clip-path="url(#clip_5)">
<path transform="matrix(1,0,0,-1,0,494.32)" d="M635.856 177.224H641.038V142.663H635.856Z" fill="#225ca7"/>
<path transform="matrix(1,0,0,-1,0,494.32)" d="M428.556 177.224H433.738V142.663H428.556Z" fill="#225ca7"/>
</g>
<g clip-path="url(#clip_6)">
<path transform="matrix(1,0,0,-1,660.4979,323.1532)" d="M0 0H-6.464V6.057H13.634V0H7.116V-21.168H0Z" fill="#225ca7"/>
<path transform="matrix(1,0,0,-1,720.8295,343.9168)" d="M0 0C-1.032-.364-3.041-.647-5.54-.647-14.884-.647-19.338 5.089-19.338 12.805-19.338 23.064-11.679 27.063-4.563 27.063-2.064 27.063-.326 26.7 .381 26.336L-.815 21.893C-1.63 22.176-2.553 22.418-4.128 22.418-8.148 22.418-11.788 19.833-11.788 13.087-11.788 6.584-8.474 4.039-4.128 4.039-2.933 4.039-1.575 4.241-.706 4.443Z" fill="#225ca7"/>
<path transform="matrix(1,0,0,-1,726.602,344.32093)" d="M0 0V27.225H6.519L12.169 16.561C13.255 14.461 15.047 10.946 16.079 8.604H16.188C15.971 11.472 15.482 16.198 15.482 21.206V27.225H21.729V0H15.21L9.615 10.341C8.42 12.643 6.737 16.076 5.921 18.54H5.812C5.975 15.794 6.247 11.593 6.247 6.14V0Z" fill="#225ca7"/>
<path transform="matrix(1,0,0,-1,782.4606,317.09584)" d="M0 0H7.116V-21.487H18.058V-27.225H0Z" fill="#225ca7"/>
<path transform="matrix(1,0,0,-1,810.9781,330.70863)" d="M0 0C0-6.18 1.576-8.11 4.455-8.11 7.442-8.11 8.584-5.292 8.584 .242 8.584 5.009 7.605 8.027 4.401 8.027 1.576 8.027 0 5.857 0 0M16.026 .485C16.026-9.775 11.136-13.936 4.183-13.936-4.128-13.936-7.387-7.392-7.387 .081-7.387 7.513-3.422 13.936 4.672 13.936 13.527 13.936 16.026 6.705 16.026 .485" fill="#225ca7"/>
<path transform="matrix(1,0,0,-1,761.1675,330.70863)" d="M0 0C0-6.18 1.576-8.11 4.455-8.11 7.442-8.11 8.584-5.292 8.584 .242 8.584 5.009 7.605 8.027 4.401 8.027 1.576 8.027 0 5.857 0 0M16.026 .485C16.026-9.775 11.136-13.936 4.183-13.936-4.128-13.936-7.387-7.392-7.387 .081-7.387 7.513-3.422 13.936 4.672 13.936 13.527 13.936 16.026 6.705 16.026 .485" fill="#225ca7"/>
<path transform="matrix(1,0,0,-1,852.8659,343.5938)" d="M0 0C-1.575-.485-4.943-.97-7.605-.97-11.788-.97-14.939-.081-17.383 1.737-20.534 3.999-22.218 8.038-22.108 12.724-21.946 22.62-14.341 26.74-6.573 26.74-3.802 26.74-1.738 26.336-.597 25.933L-1.847 21.368C-2.879 21.772-4.237 21.974-6.03 21.974-10.864 21.974-14.721 19.51-14.721 12.4-14.721 5.857-11.299 3.514-7.986 3.514-7.334 3.514-6.845 3.555-6.573 3.635V10.219H-9.833V14.541H0Z" fill="#225ca7"/>
<path transform="matrix(1,0,0,-1,696.2836,333.45503)" d="M0 0H-10.818V-4.829H1.178V-10.866H-17.934V16.359H1.119V10.336H-10.818V5.948H0Z" fill="#225ca7"/>
<path transform="matrix(1,0,0,-1,869.4006,308.5434)" d="M0 0-6.627-7.098H-11.679L-7.171 0ZM-4.672-35.777H-11.788V-8.552H-4.672Z" fill="#225ca7"/>
<path transform="matrix(1,0,0,-1,884.0121,332.5716)" d="M0 0-1.195 4.287C-1.575 5.943-2.064 8.649-2.39 10.467H-2.553C-2.933 8.649-3.477 5.821-3.857 4.246L-5.215 0ZM-5.921-5.529-7.551-11.749H-14.449L-6.518 15.476H2.01L9.126-11.749H2.227L.652-5.529Z" fill="#225ca7"/>
</g>
</g>
<g inkscape:groupmode="layer" inkscape:label="RESPONSIVE">
<g clip-path="url(#clip_7)">
</g>
</g>
</svg>
